G75*
%MOIN*%
%OFA0B0*%
%FSLAX25Y25*%
%IPPOS*%
%LPD*%
%AMOC8*
5,1,8,0,0,1.08239X$1,22.5*
%
%ADD10C,0.00000*%
%ADD11C,0.00400*%
%ADD12C,0.00472*%
%ADD13R,0.00984X0.00984*%
%ADD14C,0.00600*%
%ADD15R,0.01181X0.01181*%
%ADD16C,0.00200*%
D10*
X0007843Y0005568D02*
X0007843Y0054780D01*
X0055087Y0054780D01*
X0055087Y0005568D01*
X0007843Y0005568D01*
D11*
X0016928Y0011911D02*
X0016928Y0012378D01*
X0016928Y0011911D02*
X0016930Y0011868D01*
X0016936Y0011825D01*
X0016946Y0011783D01*
X0016960Y0011742D01*
X0016977Y0011703D01*
X0016998Y0011665D01*
X0017022Y0011630D01*
X0017050Y0011596D01*
X0017080Y0011566D01*
X0017114Y0011538D01*
X0017149Y0011514D01*
X0017187Y0011493D01*
X0017226Y0011476D01*
X0017267Y0011462D01*
X0017309Y0011452D01*
X0017352Y0011446D01*
X0017395Y0011444D01*
X0017395Y0011445D02*
X0018562Y0011445D01*
X0018562Y0011444D02*
X0018603Y0011446D01*
X0018643Y0011451D01*
X0018683Y0011460D01*
X0018722Y0011472D01*
X0018759Y0011488D01*
X0018796Y0011507D01*
X0018830Y0011528D01*
X0018862Y0011553D01*
X0018892Y0011581D01*
X0018920Y0011611D01*
X0018945Y0011643D01*
X0018966Y0011678D01*
X0018985Y0011714D01*
X0019001Y0011751D01*
X0019013Y0011790D01*
X0019022Y0011830D01*
X0019027Y0011870D01*
X0019029Y0011911D01*
X0019028Y0011911D02*
X0019028Y0012378D01*
X0018445Y0013330D02*
X0018492Y0013332D01*
X0018539Y0013338D01*
X0018585Y0013347D01*
X0018630Y0013360D01*
X0018674Y0013377D01*
X0018716Y0013397D01*
X0018757Y0013420D01*
X0018795Y0013447D01*
X0018832Y0013477D01*
X0018865Y0013509D01*
X0018897Y0013544D01*
X0018925Y0013582D01*
X0018950Y0013621D01*
X0018972Y0013663D01*
X0018990Y0013706D01*
X0019005Y0013751D01*
X0019016Y0013796D01*
X0019024Y0013843D01*
X0019028Y0013890D01*
X0019028Y0013936D01*
X0019024Y0013983D01*
X0019016Y0014030D01*
X0019005Y0014075D01*
X0018990Y0014120D01*
X0018972Y0014163D01*
X0018950Y0014204D01*
X0018925Y0014244D01*
X0018897Y0014282D01*
X0018865Y0014317D01*
X0018832Y0014349D01*
X0018795Y0014379D01*
X0018757Y0014406D01*
X0018716Y0014429D01*
X0018674Y0014449D01*
X0018630Y0014466D01*
X0018585Y0014479D01*
X0018539Y0014488D01*
X0018492Y0014494D01*
X0018445Y0014496D01*
X0018398Y0014494D01*
X0018351Y0014488D01*
X0018305Y0014479D01*
X0018260Y0014466D01*
X0018216Y0014449D01*
X0018174Y0014429D01*
X0018133Y0014406D01*
X0018095Y0014379D01*
X0018058Y0014349D01*
X0018025Y0014317D01*
X0017993Y0014282D01*
X0017965Y0014244D01*
X0017940Y0014205D01*
X0017918Y0014163D01*
X0017900Y0014120D01*
X0017885Y0014075D01*
X0017874Y0014030D01*
X0017866Y0013983D01*
X0017862Y0013936D01*
X0017862Y0013890D01*
X0017866Y0013843D01*
X0017874Y0013796D01*
X0017885Y0013751D01*
X0017900Y0013706D01*
X0017918Y0013663D01*
X0017940Y0013621D01*
X0017965Y0013582D01*
X0017993Y0013544D01*
X0018025Y0013509D01*
X0018058Y0013477D01*
X0018095Y0013447D01*
X0018133Y0013420D01*
X0018174Y0013397D01*
X0018216Y0013377D01*
X0018260Y0013360D01*
X0018305Y0013347D01*
X0018351Y0013338D01*
X0018398Y0013332D01*
X0018445Y0013330D01*
X0017395Y0013446D02*
X0017437Y0013448D01*
X0017478Y0013454D01*
X0017519Y0013463D01*
X0017559Y0013476D01*
X0017598Y0013492D01*
X0017635Y0013512D01*
X0017669Y0013535D01*
X0017702Y0013561D01*
X0017733Y0013590D01*
X0017760Y0013622D01*
X0017785Y0013656D01*
X0017806Y0013692D01*
X0017824Y0013729D01*
X0017839Y0013769D01*
X0017850Y0013809D01*
X0017858Y0013850D01*
X0017862Y0013892D01*
X0017862Y0013934D01*
X0017858Y0013976D01*
X0017850Y0014017D01*
X0017839Y0014057D01*
X0017824Y0014097D01*
X0017806Y0014134D01*
X0017785Y0014170D01*
X0017760Y0014204D01*
X0017733Y0014236D01*
X0017702Y0014265D01*
X0017669Y0014291D01*
X0017635Y0014314D01*
X0017598Y0014334D01*
X0017559Y0014350D01*
X0017519Y0014363D01*
X0017478Y0014372D01*
X0017437Y0014378D01*
X0017395Y0014380D01*
X0017353Y0014378D01*
X0017312Y0014372D01*
X0017271Y0014363D01*
X0017231Y0014350D01*
X0017192Y0014334D01*
X0017155Y0014314D01*
X0017121Y0014291D01*
X0017088Y0014265D01*
X0017057Y0014236D01*
X0017030Y0014204D01*
X0017005Y0014170D01*
X0016984Y0014134D01*
X0016966Y0014097D01*
X0016951Y0014057D01*
X0016940Y0014017D01*
X0016932Y0013976D01*
X0016928Y0013934D01*
X0016928Y0013892D01*
X0016932Y0013850D01*
X0016940Y0013809D01*
X0016951Y0013769D01*
X0016966Y0013729D01*
X0016984Y0013692D01*
X0017005Y0013656D01*
X0017030Y0013622D01*
X0017057Y0013590D01*
X0017088Y0013561D01*
X0017121Y0013535D01*
X0017155Y0013512D01*
X0017192Y0013492D01*
X0017231Y0013476D01*
X0017271Y0013463D01*
X0017312Y0013454D01*
X0017353Y0013448D01*
X0017395Y0013446D01*
X0020326Y0009048D02*
X0020326Y0008115D01*
X0020328Y0008068D01*
X0020334Y0008021D01*
X0020343Y0007975D01*
X0020356Y0007930D01*
X0020373Y0007886D01*
X0020393Y0007844D01*
X0020416Y0007803D01*
X0020443Y0007765D01*
X0020473Y0007728D01*
X0020505Y0007695D01*
X0020540Y0007663D01*
X0020578Y0007635D01*
X0020618Y0007610D01*
X0020659Y0007588D01*
X0020702Y0007570D01*
X0020747Y0007555D01*
X0020792Y0007544D01*
X0020839Y0007536D01*
X0020886Y0007532D01*
X0020932Y0007532D01*
X0020979Y0007536D01*
X0021026Y0007544D01*
X0021071Y0007555D01*
X0021116Y0007570D01*
X0021159Y0007588D01*
X0021200Y0007610D01*
X0021240Y0007635D01*
X0021278Y0007663D01*
X0021313Y0007695D01*
X0021345Y0007728D01*
X0021375Y0007765D01*
X0021402Y0007803D01*
X0021425Y0007844D01*
X0021445Y0007886D01*
X0021462Y0007930D01*
X0021475Y0007975D01*
X0021484Y0008021D01*
X0021490Y0008068D01*
X0021492Y0008115D01*
X0021493Y0008115D02*
X0021493Y0009048D01*
X0021492Y0009048D02*
X0021490Y0009095D01*
X0021484Y0009142D01*
X0021475Y0009188D01*
X0021462Y0009233D01*
X0021445Y0009277D01*
X0021425Y0009319D01*
X0021402Y0009360D01*
X0021375Y0009398D01*
X0021345Y0009435D01*
X0021313Y0009468D01*
X0021278Y0009500D01*
X0021240Y0009528D01*
X0021201Y0009553D01*
X0021159Y0009575D01*
X0021116Y0009593D01*
X0021071Y0009608D01*
X0021026Y0009619D01*
X0020979Y0009627D01*
X0020932Y0009631D01*
X0020886Y0009631D01*
X0020839Y0009627D01*
X0020792Y0009619D01*
X0020747Y0009608D01*
X0020702Y0009593D01*
X0020659Y0009575D01*
X0020618Y0009553D01*
X0020578Y0009528D01*
X0020540Y0009500D01*
X0020505Y0009468D01*
X0020473Y0009435D01*
X0020443Y0009398D01*
X0020416Y0009360D01*
X0020393Y0009319D01*
X0020373Y0009277D01*
X0020356Y0009233D01*
X0020343Y0009188D01*
X0020334Y0009142D01*
X0020328Y0009095D01*
X0020326Y0009048D01*
X0021259Y0007998D02*
X0021726Y0007531D01*
X0022454Y0007531D02*
X0023621Y0007531D01*
X0023037Y0007531D02*
X0023037Y0009631D01*
X0022454Y0009165D01*
X0034977Y0009411D02*
X0034977Y0010578D01*
X0034979Y0010621D01*
X0034985Y0010664D01*
X0034995Y0010706D01*
X0035009Y0010747D01*
X0035026Y0010786D01*
X0035047Y0010824D01*
X0035071Y0010859D01*
X0035099Y0010893D01*
X0035129Y0010923D01*
X0035163Y0010951D01*
X0035198Y0010975D01*
X0035236Y0010996D01*
X0035275Y0011013D01*
X0035316Y0011027D01*
X0035358Y0011037D01*
X0035401Y0011043D01*
X0035444Y0011045D01*
X0035910Y0011045D01*
X0036862Y0011045D02*
X0036862Y0010811D01*
X0036862Y0011045D02*
X0038028Y0011045D01*
X0037445Y0008945D01*
X0035910Y0008945D02*
X0035444Y0008945D01*
X0035444Y0008944D02*
X0035403Y0008946D01*
X0035363Y0008951D01*
X0035323Y0008960D01*
X0035284Y0008972D01*
X0035247Y0008988D01*
X0035211Y0009007D01*
X0035176Y0009028D01*
X0035144Y0009053D01*
X0035114Y0009081D01*
X0035086Y0009111D01*
X0035061Y0009143D01*
X0035040Y0009178D01*
X0035021Y0009214D01*
X0035005Y0009251D01*
X0034993Y0009290D01*
X0034984Y0009330D01*
X0034979Y0009370D01*
X0034977Y0009411D01*
X0038200Y0016959D02*
X0038667Y0016959D01*
X0038434Y0016959D02*
X0038434Y0019059D01*
X0038667Y0019059D02*
X0038200Y0019059D01*
X0039641Y0018592D02*
X0039641Y0017426D01*
X0039640Y0017426D02*
X0039642Y0017385D01*
X0039647Y0017345D01*
X0039656Y0017305D01*
X0039668Y0017266D01*
X0039684Y0017229D01*
X0039703Y0017193D01*
X0039724Y0017158D01*
X0039749Y0017126D01*
X0039777Y0017096D01*
X0039807Y0017068D01*
X0039839Y0017043D01*
X0039874Y0017022D01*
X0039910Y0017003D01*
X0039947Y0016987D01*
X0039986Y0016975D01*
X0040026Y0016966D01*
X0040066Y0016961D01*
X0040107Y0016959D01*
X0040574Y0016959D01*
X0041525Y0016959D02*
X0042692Y0016959D01*
X0042109Y0016959D02*
X0042109Y0019059D01*
X0041525Y0018592D01*
X0040574Y0019059D02*
X0040107Y0019059D01*
X0040064Y0019057D01*
X0040021Y0019051D01*
X0039979Y0019041D01*
X0039938Y0019027D01*
X0039899Y0019010D01*
X0039861Y0018989D01*
X0039826Y0018965D01*
X0039792Y0018937D01*
X0039762Y0018907D01*
X0039734Y0018873D01*
X0039710Y0018838D01*
X0039689Y0018800D01*
X0039672Y0018761D01*
X0039658Y0018720D01*
X0039648Y0018678D01*
X0039642Y0018635D01*
X0039640Y0018592D01*
X0044633Y0020445D02*
X0044633Y0022545D01*
X0045217Y0022545D01*
X0045217Y0022544D02*
X0045264Y0022542D01*
X0045311Y0022536D01*
X0045357Y0022527D01*
X0045402Y0022514D01*
X0045446Y0022497D01*
X0045488Y0022477D01*
X0045529Y0022454D01*
X0045567Y0022427D01*
X0045604Y0022397D01*
X0045637Y0022365D01*
X0045669Y0022330D01*
X0045697Y0022292D01*
X0045722Y0022252D01*
X0045744Y0022211D01*
X0045762Y0022168D01*
X0045777Y0022123D01*
X0045788Y0022078D01*
X0045796Y0022031D01*
X0045800Y0021984D01*
X0045800Y0021938D01*
X0045796Y0021891D01*
X0045788Y0021844D01*
X0045777Y0021799D01*
X0045762Y0021754D01*
X0045744Y0021711D01*
X0045722Y0021669D01*
X0045697Y0021630D01*
X0045669Y0021592D01*
X0045637Y0021557D01*
X0045604Y0021525D01*
X0045567Y0021495D01*
X0045529Y0021468D01*
X0045488Y0021445D01*
X0045446Y0021425D01*
X0045402Y0021408D01*
X0045357Y0021395D01*
X0045311Y0021386D01*
X0045264Y0021380D01*
X0045217Y0021378D01*
X0044633Y0021378D01*
X0045333Y0021378D02*
X0045800Y0020445D01*
X0046862Y0021028D02*
X0046864Y0020981D01*
X0046870Y0020934D01*
X0046879Y0020888D01*
X0046892Y0020843D01*
X0046909Y0020799D01*
X0046929Y0020757D01*
X0046952Y0020716D01*
X0046979Y0020678D01*
X0047009Y0020641D01*
X0047041Y0020608D01*
X0047076Y0020576D01*
X0047114Y0020548D01*
X0047154Y0020523D01*
X0047195Y0020501D01*
X0047238Y0020483D01*
X0047283Y0020468D01*
X0047328Y0020457D01*
X0047375Y0020449D01*
X0047422Y0020445D01*
X0047468Y0020445D01*
X0047515Y0020449D01*
X0047562Y0020457D01*
X0047607Y0020468D01*
X0047652Y0020483D01*
X0047695Y0020501D01*
X0047737Y0020523D01*
X0047776Y0020548D01*
X0047814Y0020576D01*
X0047849Y0020608D01*
X0047881Y0020641D01*
X0047911Y0020678D01*
X0047938Y0020716D01*
X0047961Y0020757D01*
X0047981Y0020799D01*
X0047998Y0020843D01*
X0048011Y0020888D01*
X0048020Y0020934D01*
X0048026Y0020981D01*
X0048028Y0021028D01*
X0048026Y0021075D01*
X0048020Y0021122D01*
X0048011Y0021168D01*
X0047998Y0021213D01*
X0047981Y0021257D01*
X0047961Y0021299D01*
X0047938Y0021340D01*
X0047911Y0021378D01*
X0047881Y0021415D01*
X0047849Y0021448D01*
X0047814Y0021480D01*
X0047776Y0021508D01*
X0047737Y0021533D01*
X0047695Y0021555D01*
X0047652Y0021573D01*
X0047607Y0021588D01*
X0047562Y0021599D01*
X0047515Y0021607D01*
X0047468Y0021611D01*
X0047422Y0021611D01*
X0047375Y0021607D01*
X0047328Y0021599D01*
X0047283Y0021588D01*
X0047238Y0021573D01*
X0047195Y0021555D01*
X0047154Y0021533D01*
X0047114Y0021508D01*
X0047076Y0021480D01*
X0047041Y0021448D01*
X0047009Y0021415D01*
X0046979Y0021378D01*
X0046952Y0021340D01*
X0046929Y0021299D01*
X0046909Y0021257D01*
X0046892Y0021213D01*
X0046879Y0021168D01*
X0046870Y0021122D01*
X0046864Y0021075D01*
X0046862Y0021028D01*
X0046978Y0022078D02*
X0046980Y0022036D01*
X0046986Y0021995D01*
X0046995Y0021954D01*
X0047008Y0021914D01*
X0047024Y0021875D01*
X0047044Y0021838D01*
X0047067Y0021804D01*
X0047093Y0021771D01*
X0047122Y0021740D01*
X0047154Y0021713D01*
X0047188Y0021688D01*
X0047224Y0021667D01*
X0047261Y0021649D01*
X0047301Y0021634D01*
X0047341Y0021623D01*
X0047382Y0021615D01*
X0047424Y0021611D01*
X0047466Y0021611D01*
X0047508Y0021615D01*
X0047549Y0021623D01*
X0047589Y0021634D01*
X0047629Y0021649D01*
X0047666Y0021667D01*
X0047702Y0021688D01*
X0047736Y0021713D01*
X0047768Y0021740D01*
X0047797Y0021771D01*
X0047823Y0021804D01*
X0047846Y0021838D01*
X0047866Y0021875D01*
X0047882Y0021914D01*
X0047895Y0021954D01*
X0047904Y0021995D01*
X0047910Y0022036D01*
X0047912Y0022078D01*
X0047910Y0022120D01*
X0047904Y0022161D01*
X0047895Y0022202D01*
X0047882Y0022242D01*
X0047866Y0022281D01*
X0047846Y0022318D01*
X0047823Y0022352D01*
X0047797Y0022385D01*
X0047768Y0022416D01*
X0047736Y0022443D01*
X0047702Y0022468D01*
X0047666Y0022489D01*
X0047629Y0022507D01*
X0047589Y0022522D01*
X0047549Y0022533D01*
X0047508Y0022541D01*
X0047466Y0022545D01*
X0047424Y0022545D01*
X0047382Y0022541D01*
X0047341Y0022533D01*
X0047301Y0022522D01*
X0047261Y0022507D01*
X0047224Y0022489D01*
X0047188Y0022468D01*
X0047154Y0022443D01*
X0047122Y0022416D01*
X0047093Y0022385D01*
X0047067Y0022352D01*
X0047044Y0022318D01*
X0047024Y0022281D01*
X0047008Y0022242D01*
X0046995Y0022202D01*
X0046986Y0022161D01*
X0046980Y0022120D01*
X0046978Y0022078D01*
X0046980Y0024945D02*
X0045813Y0024945D01*
X0046396Y0024945D02*
X0046396Y0027045D01*
X0045813Y0026578D01*
X0044862Y0027045D02*
X0044395Y0027045D01*
X0044352Y0027043D01*
X0044309Y0027037D01*
X0044267Y0027027D01*
X0044226Y0027013D01*
X0044187Y0026996D01*
X0044149Y0026975D01*
X0044114Y0026951D01*
X0044080Y0026923D01*
X0044050Y0026893D01*
X0044022Y0026859D01*
X0043998Y0026824D01*
X0043977Y0026786D01*
X0043960Y0026747D01*
X0043946Y0026706D01*
X0043936Y0026664D01*
X0043930Y0026621D01*
X0043928Y0026578D01*
X0043928Y0025411D01*
X0043930Y0025370D01*
X0043935Y0025330D01*
X0043944Y0025290D01*
X0043956Y0025251D01*
X0043972Y0025214D01*
X0043991Y0025178D01*
X0044012Y0025143D01*
X0044037Y0025111D01*
X0044065Y0025081D01*
X0044095Y0025053D01*
X0044127Y0025028D01*
X0044162Y0025007D01*
X0044198Y0024988D01*
X0044235Y0024972D01*
X0044274Y0024960D01*
X0044314Y0024951D01*
X0044354Y0024946D01*
X0044395Y0024944D01*
X0044395Y0024945D02*
X0044862Y0024945D01*
X0048063Y0025411D02*
X0049230Y0025411D01*
X0048880Y0024945D02*
X0048880Y0025878D01*
X0048063Y0025411D02*
X0048530Y0027045D01*
X0047528Y0029878D02*
X0046828Y0029878D01*
X0047528Y0029878D02*
X0047526Y0029817D01*
X0047520Y0029756D01*
X0047510Y0029696D01*
X0047496Y0029637D01*
X0047478Y0029578D01*
X0047457Y0029521D01*
X0047432Y0029465D01*
X0047403Y0029412D01*
X0047371Y0029360D01*
X0047335Y0029310D01*
X0047296Y0029263D01*
X0047255Y0029218D01*
X0047210Y0029177D01*
X0047163Y0029138D01*
X0047113Y0029102D01*
X0047062Y0029070D01*
X0047008Y0029041D01*
X0046952Y0029016D01*
X0046895Y0028995D01*
X0046836Y0028977D01*
X0046777Y0028963D01*
X0046717Y0028953D01*
X0046656Y0028947D01*
X0046595Y0028945D01*
X0047528Y0029878D02*
X0047528Y0030461D01*
X0047526Y0030508D01*
X0047520Y0030555D01*
X0047511Y0030601D01*
X0047498Y0030646D01*
X0047481Y0030690D01*
X0047461Y0030732D01*
X0047438Y0030773D01*
X0047411Y0030811D01*
X0047381Y0030848D01*
X0047349Y0030881D01*
X0047314Y0030913D01*
X0047276Y0030941D01*
X0047237Y0030966D01*
X0047195Y0030988D01*
X0047152Y0031006D01*
X0047107Y0031021D01*
X0047062Y0031032D01*
X0047015Y0031040D01*
X0046968Y0031044D01*
X0046922Y0031044D01*
X0046875Y0031040D01*
X0046828Y0031032D01*
X0046783Y0031021D01*
X0046738Y0031006D01*
X0046695Y0030988D01*
X0046654Y0030966D01*
X0046614Y0030941D01*
X0046576Y0030913D01*
X0046541Y0030881D01*
X0046509Y0030848D01*
X0046479Y0030811D01*
X0046452Y0030773D01*
X0046429Y0030732D01*
X0046409Y0030690D01*
X0046392Y0030646D01*
X0046379Y0030601D01*
X0046370Y0030555D01*
X0046364Y0030508D01*
X0046362Y0030461D01*
X0046362Y0030345D01*
X0046361Y0030345D02*
X0046363Y0030304D01*
X0046368Y0030264D01*
X0046377Y0030224D01*
X0046389Y0030185D01*
X0046405Y0030148D01*
X0046424Y0030112D01*
X0046445Y0030077D01*
X0046470Y0030045D01*
X0046498Y0030015D01*
X0046528Y0029987D01*
X0046560Y0029962D01*
X0046594Y0029941D01*
X0046631Y0029922D01*
X0046668Y0029906D01*
X0046707Y0029894D01*
X0046747Y0029885D01*
X0046787Y0029880D01*
X0046828Y0029878D01*
X0045300Y0028945D02*
X0044833Y0029878D01*
X0044717Y0029878D02*
X0044133Y0029878D01*
X0044717Y0029878D02*
X0044764Y0029880D01*
X0044811Y0029886D01*
X0044857Y0029895D01*
X0044902Y0029908D01*
X0044946Y0029925D01*
X0044988Y0029945D01*
X0045029Y0029968D01*
X0045067Y0029995D01*
X0045104Y0030025D01*
X0045137Y0030057D01*
X0045169Y0030092D01*
X0045197Y0030130D01*
X0045222Y0030169D01*
X0045244Y0030211D01*
X0045262Y0030254D01*
X0045277Y0030299D01*
X0045288Y0030344D01*
X0045296Y0030391D01*
X0045300Y0030438D01*
X0045300Y0030484D01*
X0045296Y0030531D01*
X0045288Y0030578D01*
X0045277Y0030623D01*
X0045262Y0030668D01*
X0045244Y0030711D01*
X0045222Y0030752D01*
X0045197Y0030792D01*
X0045169Y0030830D01*
X0045137Y0030865D01*
X0045104Y0030897D01*
X0045067Y0030927D01*
X0045029Y0030954D01*
X0044988Y0030977D01*
X0044946Y0030997D01*
X0044902Y0031014D01*
X0044857Y0031027D01*
X0044811Y0031036D01*
X0044764Y0031042D01*
X0044717Y0031044D01*
X0044717Y0031045D02*
X0044133Y0031045D01*
X0044133Y0028945D01*
X0044633Y0033445D02*
X0044633Y0035545D01*
X0045217Y0035545D01*
X0045217Y0035544D02*
X0045264Y0035542D01*
X0045311Y0035536D01*
X0045357Y0035527D01*
X0045402Y0035514D01*
X0045446Y0035497D01*
X0045488Y0035477D01*
X0045529Y0035454D01*
X0045567Y0035427D01*
X0045604Y0035397D01*
X0045637Y0035365D01*
X0045669Y0035330D01*
X0045697Y0035292D01*
X0045722Y0035252D01*
X0045744Y0035211D01*
X0045762Y0035168D01*
X0045777Y0035123D01*
X0045788Y0035078D01*
X0045796Y0035031D01*
X0045800Y0034984D01*
X0045800Y0034938D01*
X0045796Y0034891D01*
X0045788Y0034844D01*
X0045777Y0034799D01*
X0045762Y0034754D01*
X0045744Y0034711D01*
X0045722Y0034670D01*
X0045697Y0034630D01*
X0045669Y0034592D01*
X0045637Y0034557D01*
X0045604Y0034525D01*
X0045567Y0034495D01*
X0045529Y0034468D01*
X0045488Y0034445D01*
X0045446Y0034425D01*
X0045402Y0034408D01*
X0045357Y0034395D01*
X0045311Y0034386D01*
X0045264Y0034380D01*
X0045217Y0034378D01*
X0044633Y0034378D01*
X0045333Y0034378D02*
X0045800Y0033445D01*
X0046862Y0034028D02*
X0046862Y0034611D01*
X0047562Y0034611D01*
X0046862Y0034611D02*
X0046864Y0034672D01*
X0046870Y0034733D01*
X0046880Y0034793D01*
X0046894Y0034852D01*
X0046912Y0034911D01*
X0046933Y0034968D01*
X0046958Y0035024D01*
X0046987Y0035077D01*
X0047019Y0035129D01*
X0047055Y0035179D01*
X0047094Y0035226D01*
X0047135Y0035271D01*
X0047180Y0035312D01*
X0047227Y0035351D01*
X0047277Y0035387D01*
X0047328Y0035419D01*
X0047382Y0035448D01*
X0047438Y0035473D01*
X0047495Y0035494D01*
X0047554Y0035512D01*
X0047613Y0035526D01*
X0047673Y0035536D01*
X0047734Y0035542D01*
X0047795Y0035544D01*
X0047562Y0034612D02*
X0047603Y0034610D01*
X0047643Y0034605D01*
X0047683Y0034596D01*
X0047722Y0034584D01*
X0047759Y0034568D01*
X0047796Y0034549D01*
X0047830Y0034528D01*
X0047862Y0034503D01*
X0047892Y0034475D01*
X0047920Y0034445D01*
X0047945Y0034413D01*
X0047966Y0034379D01*
X0047985Y0034342D01*
X0048001Y0034305D01*
X0048013Y0034266D01*
X0048022Y0034226D01*
X0048027Y0034186D01*
X0048029Y0034145D01*
X0048028Y0034145D02*
X0048028Y0034028D01*
X0048026Y0033981D01*
X0048020Y0033934D01*
X0048011Y0033888D01*
X0047998Y0033843D01*
X0047981Y0033799D01*
X0047961Y0033757D01*
X0047938Y0033716D01*
X0047911Y0033678D01*
X0047881Y0033641D01*
X0047849Y0033608D01*
X0047814Y0033576D01*
X0047776Y0033548D01*
X0047737Y0033523D01*
X0047695Y0033501D01*
X0047652Y0033483D01*
X0047607Y0033468D01*
X0047562Y0033457D01*
X0047515Y0033449D01*
X0047468Y0033445D01*
X0047422Y0033445D01*
X0047375Y0033449D01*
X0047328Y0033457D01*
X0047283Y0033468D01*
X0047238Y0033483D01*
X0047195Y0033501D01*
X0047154Y0033523D01*
X0047114Y0033548D01*
X0047076Y0033576D01*
X0047041Y0033608D01*
X0047009Y0033641D01*
X0046979Y0033678D01*
X0046952Y0033716D01*
X0046929Y0033757D01*
X0046909Y0033799D01*
X0046892Y0033843D01*
X0046879Y0033888D01*
X0046870Y0033934D01*
X0046864Y0033981D01*
X0046862Y0034028D01*
X0045862Y0037445D02*
X0045395Y0037445D01*
X0045395Y0037444D02*
X0045354Y0037446D01*
X0045314Y0037451D01*
X0045274Y0037460D01*
X0045235Y0037472D01*
X0045198Y0037488D01*
X0045162Y0037507D01*
X0045127Y0037528D01*
X0045095Y0037553D01*
X0045065Y0037581D01*
X0045037Y0037611D01*
X0045012Y0037643D01*
X0044991Y0037678D01*
X0044972Y0037714D01*
X0044956Y0037751D01*
X0044944Y0037790D01*
X0044935Y0037830D01*
X0044930Y0037870D01*
X0044928Y0037911D01*
X0044928Y0039078D01*
X0044930Y0039121D01*
X0044936Y0039164D01*
X0044946Y0039206D01*
X0044960Y0039247D01*
X0044977Y0039286D01*
X0044998Y0039324D01*
X0045022Y0039359D01*
X0045050Y0039393D01*
X0045080Y0039423D01*
X0045114Y0039451D01*
X0045149Y0039475D01*
X0045187Y0039496D01*
X0045226Y0039513D01*
X0045267Y0039527D01*
X0045309Y0039537D01*
X0045352Y0039543D01*
X0045395Y0039545D01*
X0045862Y0039545D01*
X0046813Y0038961D02*
X0046813Y0038845D01*
X0046815Y0038804D01*
X0046820Y0038764D01*
X0046829Y0038724D01*
X0046841Y0038685D01*
X0046857Y0038648D01*
X0046876Y0038612D01*
X0046897Y0038577D01*
X0046922Y0038545D01*
X0046950Y0038515D01*
X0046980Y0038487D01*
X0047012Y0038462D01*
X0047046Y0038441D01*
X0047083Y0038422D01*
X0047120Y0038406D01*
X0047159Y0038394D01*
X0047199Y0038385D01*
X0047239Y0038380D01*
X0047280Y0038378D01*
X0047980Y0038378D01*
X0047980Y0038961D01*
X0047979Y0038961D02*
X0047977Y0039008D01*
X0047971Y0039055D01*
X0047962Y0039101D01*
X0047949Y0039146D01*
X0047932Y0039190D01*
X0047912Y0039232D01*
X0047889Y0039273D01*
X0047862Y0039311D01*
X0047832Y0039348D01*
X0047800Y0039381D01*
X0047765Y0039413D01*
X0047727Y0039441D01*
X0047688Y0039466D01*
X0047646Y0039488D01*
X0047603Y0039506D01*
X0047558Y0039521D01*
X0047513Y0039532D01*
X0047466Y0039540D01*
X0047419Y0039544D01*
X0047373Y0039544D01*
X0047326Y0039540D01*
X0047279Y0039532D01*
X0047234Y0039521D01*
X0047189Y0039506D01*
X0047146Y0039488D01*
X0047105Y0039466D01*
X0047065Y0039441D01*
X0047027Y0039413D01*
X0046992Y0039381D01*
X0046960Y0039348D01*
X0046930Y0039311D01*
X0046903Y0039273D01*
X0046880Y0039232D01*
X0046860Y0039190D01*
X0046843Y0039146D01*
X0046830Y0039101D01*
X0046821Y0039055D01*
X0046815Y0039008D01*
X0046813Y0038961D01*
X0047979Y0038378D02*
X0047977Y0038317D01*
X0047971Y0038256D01*
X0047961Y0038196D01*
X0047947Y0038137D01*
X0047929Y0038078D01*
X0047908Y0038021D01*
X0047883Y0037965D01*
X0047854Y0037912D01*
X0047822Y0037860D01*
X0047786Y0037810D01*
X0047747Y0037763D01*
X0047706Y0037718D01*
X0047661Y0037677D01*
X0047614Y0037638D01*
X0047564Y0037602D01*
X0047513Y0037570D01*
X0047459Y0037541D01*
X0047403Y0037516D01*
X0047346Y0037495D01*
X0047287Y0037477D01*
X0047228Y0037463D01*
X0047168Y0037453D01*
X0047107Y0037447D01*
X0047046Y0037445D01*
X0047504Y0042945D02*
X0048087Y0045045D01*
X0046921Y0045045D01*
X0046921Y0044811D01*
X0045276Y0045045D02*
X0044692Y0045045D01*
X0044692Y0042945D01*
X0044692Y0043878D02*
X0045276Y0043878D01*
X0045392Y0043878D02*
X0045859Y0042945D01*
X0045276Y0043878D02*
X0045323Y0043880D01*
X0045370Y0043886D01*
X0045416Y0043895D01*
X0045461Y0043908D01*
X0045505Y0043925D01*
X0045547Y0043945D01*
X0045588Y0043968D01*
X0045626Y0043995D01*
X0045663Y0044025D01*
X0045696Y0044057D01*
X0045728Y0044092D01*
X0045756Y0044130D01*
X0045781Y0044170D01*
X0045803Y0044211D01*
X0045821Y0044254D01*
X0045836Y0044299D01*
X0045847Y0044344D01*
X0045855Y0044391D01*
X0045859Y0044438D01*
X0045859Y0044484D01*
X0045855Y0044531D01*
X0045847Y0044578D01*
X0045836Y0044623D01*
X0045821Y0044668D01*
X0045803Y0044711D01*
X0045781Y0044752D01*
X0045756Y0044792D01*
X0045728Y0044830D01*
X0045696Y0044865D01*
X0045663Y0044897D01*
X0045626Y0044927D01*
X0045588Y0044954D01*
X0045547Y0044977D01*
X0045505Y0044997D01*
X0045461Y0045014D01*
X0045416Y0045027D01*
X0045370Y0045036D01*
X0045323Y0045042D01*
X0045276Y0045044D01*
X0041528Y0044996D02*
X0041528Y0043830D01*
X0041528Y0044413D02*
X0039428Y0044413D01*
X0039895Y0043830D01*
X0039428Y0042878D02*
X0039428Y0042411D01*
X0039430Y0042368D01*
X0039436Y0042325D01*
X0039446Y0042283D01*
X0039460Y0042242D01*
X0039477Y0042203D01*
X0039498Y0042165D01*
X0039522Y0042130D01*
X0039550Y0042096D01*
X0039580Y0042066D01*
X0039614Y0042038D01*
X0039649Y0042014D01*
X0039687Y0041993D01*
X0039726Y0041976D01*
X0039767Y0041962D01*
X0039809Y0041952D01*
X0039852Y0041946D01*
X0039895Y0041944D01*
X0039895Y0041945D02*
X0041062Y0041945D01*
X0041062Y0041944D02*
X0041103Y0041946D01*
X0041143Y0041951D01*
X0041183Y0041960D01*
X0041222Y0041972D01*
X0041259Y0041988D01*
X0041296Y0042007D01*
X0041330Y0042028D01*
X0041362Y0042053D01*
X0041392Y0042081D01*
X0041420Y0042111D01*
X0041445Y0042143D01*
X0041466Y0042178D01*
X0041485Y0042214D01*
X0041501Y0042251D01*
X0041513Y0042290D01*
X0041522Y0042330D01*
X0041527Y0042370D01*
X0041529Y0042411D01*
X0041528Y0042411D02*
X0041528Y0042878D01*
X0035323Y0045445D02*
X0034157Y0045445D01*
X0034740Y0045445D02*
X0034740Y0047545D01*
X0034157Y0047078D01*
X0032628Y0046378D02*
X0033095Y0045445D01*
X0032512Y0046378D02*
X0031928Y0046378D01*
X0032512Y0046378D02*
X0032559Y0046380D01*
X0032606Y0046386D01*
X0032652Y0046395D01*
X0032697Y0046408D01*
X0032741Y0046425D01*
X0032783Y0046445D01*
X0032824Y0046468D01*
X0032862Y0046495D01*
X0032899Y0046525D01*
X0032932Y0046557D01*
X0032964Y0046592D01*
X0032992Y0046630D01*
X0033017Y0046670D01*
X0033039Y0046711D01*
X0033057Y0046754D01*
X0033072Y0046799D01*
X0033083Y0046844D01*
X0033091Y0046891D01*
X0033095Y0046938D01*
X0033095Y0046984D01*
X0033091Y0047031D01*
X0033083Y0047078D01*
X0033072Y0047123D01*
X0033057Y0047168D01*
X0033039Y0047211D01*
X0033017Y0047252D01*
X0032992Y0047292D01*
X0032964Y0047330D01*
X0032932Y0047365D01*
X0032899Y0047397D01*
X0032862Y0047427D01*
X0032824Y0047454D01*
X0032783Y0047477D01*
X0032741Y0047497D01*
X0032697Y0047514D01*
X0032652Y0047527D01*
X0032606Y0047536D01*
X0032559Y0047542D01*
X0032512Y0047544D01*
X0032512Y0047545D02*
X0031928Y0047545D01*
X0031928Y0045445D01*
X0025028Y0045340D02*
X0025028Y0044173D01*
X0023862Y0045165D01*
X0022929Y0044815D02*
X0022931Y0044765D01*
X0022936Y0044716D01*
X0022946Y0044667D01*
X0022958Y0044618D01*
X0022975Y0044571D01*
X0022994Y0044526D01*
X0023017Y0044481D01*
X0023044Y0044439D01*
X0023073Y0044399D01*
X0023105Y0044361D01*
X0023140Y0044325D01*
X0023178Y0044292D01*
X0023217Y0044262D01*
X0023259Y0044235D01*
X0023303Y0044211D01*
X0023349Y0044191D01*
X0023395Y0044174D01*
X0023861Y0045165D02*
X0023829Y0045197D01*
X0023793Y0045226D01*
X0023756Y0045252D01*
X0023716Y0045275D01*
X0023675Y0045294D01*
X0023633Y0045311D01*
X0023589Y0045323D01*
X0023544Y0045333D01*
X0023499Y0045338D01*
X0023453Y0045340D01*
X0023410Y0045338D01*
X0023367Y0045333D01*
X0023324Y0045324D01*
X0023283Y0045312D01*
X0023242Y0045296D01*
X0023203Y0045277D01*
X0023166Y0045255D01*
X0023131Y0045229D01*
X0023097Y0045201D01*
X0023067Y0045171D01*
X0023039Y0045137D01*
X0023013Y0045102D01*
X0022991Y0045065D01*
X0022972Y0045026D01*
X0022956Y0044985D01*
X0022944Y0044944D01*
X0022935Y0044901D01*
X0022930Y0044858D01*
X0022928Y0044815D01*
X0021528Y0044756D02*
X0021528Y0044173D01*
X0021528Y0044756D02*
X0021526Y0044803D01*
X0021520Y0044850D01*
X0021511Y0044896D01*
X0021498Y0044941D01*
X0021481Y0044985D01*
X0021461Y0045027D01*
X0021438Y0045068D01*
X0021411Y0045106D01*
X0021381Y0045143D01*
X0021349Y0045176D01*
X0021314Y0045208D01*
X0021276Y0045236D01*
X0021237Y0045261D01*
X0021195Y0045283D01*
X0021152Y0045301D01*
X0021107Y0045316D01*
X0021062Y0045327D01*
X0021015Y0045335D01*
X0020968Y0045339D01*
X0020922Y0045339D01*
X0020875Y0045335D01*
X0020828Y0045327D01*
X0020783Y0045316D01*
X0020738Y0045301D01*
X0020695Y0045283D01*
X0020654Y0045261D01*
X0020614Y0045236D01*
X0020576Y0045208D01*
X0020541Y0045176D01*
X0020509Y0045143D01*
X0020479Y0045106D01*
X0020452Y0045068D01*
X0020429Y0045027D01*
X0020409Y0044985D01*
X0020392Y0044941D01*
X0020379Y0044896D01*
X0020370Y0044850D01*
X0020364Y0044803D01*
X0020362Y0044756D01*
X0020362Y0044873D02*
X0020362Y0044406D01*
X0020362Y0044873D02*
X0020360Y0044915D01*
X0020354Y0044956D01*
X0020345Y0044997D01*
X0020332Y0045037D01*
X0020316Y0045076D01*
X0020296Y0045113D01*
X0020273Y0045147D01*
X0020247Y0045180D01*
X0020218Y0045211D01*
X0020186Y0045238D01*
X0020152Y0045263D01*
X0020116Y0045284D01*
X0020079Y0045302D01*
X0020039Y0045317D01*
X0019999Y0045328D01*
X0019958Y0045336D01*
X0019916Y0045340D01*
X0019874Y0045340D01*
X0019832Y0045336D01*
X0019791Y0045328D01*
X0019751Y0045317D01*
X0019711Y0045302D01*
X0019674Y0045284D01*
X0019638Y0045263D01*
X0019604Y0045238D01*
X0019572Y0045211D01*
X0019543Y0045180D01*
X0019517Y0045147D01*
X0019494Y0045113D01*
X0019474Y0045076D01*
X0019458Y0045037D01*
X0019445Y0044997D01*
X0019436Y0044956D01*
X0019430Y0044915D01*
X0019428Y0044873D01*
X0019428Y0044173D01*
X0019428Y0042528D02*
X0019428Y0041945D01*
X0021528Y0041945D01*
X0020595Y0041945D02*
X0020595Y0042528D01*
X0020595Y0042645D02*
X0021528Y0043111D01*
X0022928Y0042528D02*
X0022928Y0041945D01*
X0025028Y0041945D01*
X0024095Y0041945D02*
X0024095Y0042528D01*
X0024095Y0042645D02*
X0025028Y0043111D01*
X0024095Y0042528D02*
X0024093Y0042575D01*
X0024087Y0042622D01*
X0024078Y0042668D01*
X0024065Y0042713D01*
X0024048Y0042757D01*
X0024028Y0042799D01*
X0024005Y0042840D01*
X0023978Y0042878D01*
X0023948Y0042915D01*
X0023916Y0042948D01*
X0023881Y0042980D01*
X0023843Y0043008D01*
X0023804Y0043033D01*
X0023762Y0043055D01*
X0023719Y0043073D01*
X0023674Y0043088D01*
X0023629Y0043099D01*
X0023582Y0043107D01*
X0023535Y0043111D01*
X0023489Y0043111D01*
X0023442Y0043107D01*
X0023395Y0043099D01*
X0023350Y0043088D01*
X0023305Y0043073D01*
X0023262Y0043055D01*
X0023221Y0043033D01*
X0023181Y0043008D01*
X0023143Y0042980D01*
X0023108Y0042948D01*
X0023076Y0042915D01*
X0023046Y0042878D01*
X0023019Y0042840D01*
X0022996Y0042799D01*
X0022976Y0042757D01*
X0022959Y0042713D01*
X0022946Y0042668D01*
X0022937Y0042622D01*
X0022931Y0042575D01*
X0022929Y0042528D01*
X0020595Y0042528D02*
X0020593Y0042575D01*
X0020587Y0042622D01*
X0020578Y0042668D01*
X0020565Y0042713D01*
X0020548Y0042757D01*
X0020528Y0042799D01*
X0020505Y0042840D01*
X0020478Y0042878D01*
X0020448Y0042915D01*
X0020416Y0042948D01*
X0020381Y0042980D01*
X0020343Y0043008D01*
X0020304Y0043033D01*
X0020262Y0043055D01*
X0020219Y0043073D01*
X0020174Y0043088D01*
X0020129Y0043099D01*
X0020082Y0043107D01*
X0020035Y0043111D01*
X0019989Y0043111D01*
X0019942Y0043107D01*
X0019895Y0043099D01*
X0019850Y0043088D01*
X0019805Y0043073D01*
X0019762Y0043055D01*
X0019721Y0043033D01*
X0019681Y0043008D01*
X0019643Y0042980D01*
X0019608Y0042948D01*
X0019576Y0042915D01*
X0019546Y0042878D01*
X0019519Y0042840D01*
X0019496Y0042799D01*
X0019476Y0042757D01*
X0019459Y0042713D01*
X0019446Y0042668D01*
X0019437Y0042622D01*
X0019431Y0042575D01*
X0019429Y0042528D01*
X0017028Y0041945D02*
X0014928Y0041945D01*
X0014928Y0042528D01*
X0014929Y0042528D02*
X0014931Y0042575D01*
X0014937Y0042622D01*
X0014946Y0042668D01*
X0014959Y0042713D01*
X0014976Y0042757D01*
X0014996Y0042799D01*
X0015019Y0042840D01*
X0015046Y0042878D01*
X0015076Y0042915D01*
X0015108Y0042948D01*
X0015143Y0042980D01*
X0015181Y0043008D01*
X0015221Y0043033D01*
X0015262Y0043055D01*
X0015305Y0043073D01*
X0015350Y0043088D01*
X0015395Y0043099D01*
X0015442Y0043107D01*
X0015489Y0043111D01*
X0015535Y0043111D01*
X0015582Y0043107D01*
X0015629Y0043099D01*
X0015674Y0043088D01*
X0015719Y0043073D01*
X0015762Y0043055D01*
X0015804Y0043033D01*
X0015843Y0043008D01*
X0015881Y0042980D01*
X0015916Y0042948D01*
X0015948Y0042915D01*
X0015978Y0042878D01*
X0016005Y0042840D01*
X0016028Y0042799D01*
X0016048Y0042757D01*
X0016065Y0042713D01*
X0016078Y0042668D01*
X0016087Y0042622D01*
X0016093Y0042575D01*
X0016095Y0042528D01*
X0016095Y0041945D01*
X0016095Y0042645D02*
X0017028Y0043111D01*
X0016562Y0044173D02*
X0016562Y0045340D01*
X0017028Y0044990D02*
X0016095Y0044990D01*
X0016562Y0044173D02*
X0014928Y0044640D01*
D12*
X0016346Y0040686D02*
X0041228Y0040686D01*
X0041228Y0015804D01*
X0039220Y0015804D01*
X0041228Y0017812D01*
X0041228Y0015804D01*
X0016346Y0015804D01*
X0016346Y0040686D01*
X0019181Y0037851D02*
X0020323Y0037851D01*
X0019181Y0037851D02*
X0019181Y0036709D01*
X0019181Y0019780D02*
X0019181Y0018638D01*
X0020323Y0018638D01*
X0037252Y0018638D02*
X0038394Y0018638D01*
X0038394Y0019780D01*
X0040758Y0017341D02*
X0041228Y0017341D01*
X0041228Y0016870D02*
X0040287Y0016870D01*
X0039816Y0016399D02*
X0041228Y0016399D01*
X0041228Y0015929D02*
X0039345Y0015929D01*
X0038394Y0036709D02*
X0038394Y0037851D01*
X0037252Y0037851D01*
D13*
X0037941Y0019091D03*
D14*
X0033224Y0011442D02*
X0033224Y0011048D01*
X0029760Y0008095D02*
X0028815Y0008095D01*
X0025350Y0011048D02*
X0025350Y0011442D01*
X0028815Y0014394D02*
X0029760Y0014394D01*
D15*
X0044228Y0027745D03*
X0044228Y0033245D03*
X0046287Y0040745D03*
X0033228Y0043745D03*
X0025728Y0043745D03*
X0021728Y0043745D03*
X0018728Y0043745D03*
X0046228Y0019745D03*
D16*
X0041980Y0015300D02*
X0041491Y0015300D01*
X0041448Y0015298D01*
X0041406Y0015293D01*
X0041364Y0015283D01*
X0041324Y0015271D01*
X0041284Y0015254D01*
X0041246Y0015234D01*
X0041211Y0015212D01*
X0041177Y0015186D01*
X0041145Y0015157D01*
X0041116Y0015125D01*
X0041090Y0015091D01*
X0041068Y0015055D01*
X0041048Y0015018D01*
X0041031Y0014978D01*
X0041019Y0014938D01*
X0041009Y0014896D01*
X0041004Y0014854D01*
X0041002Y0014811D01*
X0041002Y0013589D01*
X0041004Y0013546D01*
X0041009Y0013504D01*
X0041019Y0013462D01*
X0041031Y0013422D01*
X0041048Y0013382D01*
X0041068Y0013345D01*
X0041090Y0013309D01*
X0041116Y0013275D01*
X0041145Y0013243D01*
X0041177Y0013214D01*
X0041211Y0013188D01*
X0041247Y0013166D01*
X0041284Y0013146D01*
X0041324Y0013129D01*
X0041364Y0013117D01*
X0041406Y0013107D01*
X0041448Y0013102D01*
X0041491Y0013100D01*
X0041980Y0013100D01*
X0042808Y0013100D02*
X0044030Y0013100D01*
X0042808Y0013100D02*
X0043847Y0014322D01*
X0043480Y0015300D02*
X0043428Y0015298D01*
X0043376Y0015292D01*
X0043324Y0015283D01*
X0043274Y0015269D01*
X0043224Y0015252D01*
X0043176Y0015231D01*
X0043130Y0015207D01*
X0043086Y0015180D01*
X0043043Y0015149D01*
X0043003Y0015115D01*
X0042966Y0015079D01*
X0042932Y0015039D01*
X0042900Y0014997D01*
X0042872Y0014954D01*
X0042847Y0014908D01*
X0042825Y0014860D01*
X0042807Y0014811D01*
X0043848Y0014322D02*
X0043881Y0014356D01*
X0043911Y0014393D01*
X0043939Y0014433D01*
X0043963Y0014474D01*
X0043983Y0014517D01*
X0044000Y0014562D01*
X0044014Y0014608D01*
X0044023Y0014655D01*
X0044029Y0014702D01*
X0044031Y0014750D01*
X0044030Y0014750D02*
X0044028Y0014795D01*
X0044022Y0014841D01*
X0044013Y0014885D01*
X0044000Y0014929D01*
X0043984Y0014971D01*
X0043964Y0015012D01*
X0043940Y0015051D01*
X0043914Y0015088D01*
X0043885Y0015123D01*
X0043853Y0015155D01*
X0043818Y0015184D01*
X0043781Y0015210D01*
X0043742Y0015234D01*
X0043701Y0015254D01*
X0043659Y0015270D01*
X0043615Y0015283D01*
X0043571Y0015292D01*
X0043525Y0015298D01*
X0043480Y0015300D01*
M02*
