G75*
%MOIN*%
%OFA0B0*%
%FSLAX25Y25*%
%IPPOS*%
%LPD*%
%AMOC8*
5,1,8,0,0,1.08239X$1,22.5*
%
%ADD10C,0.04756*%
%ADD11C,0.02578*%
%ADD12C,0.01200*%
%ADD13C,0.00600*%
%ADD14C,0.02381*%
D10*
X0011780Y0018363D03*
X0011780Y0024268D03*
X0011780Y0030174D03*
X0011780Y0036079D03*
X0011780Y0041985D03*
X0020638Y0050843D03*
X0026543Y0050843D03*
X0032449Y0050843D03*
X0038354Y0050843D03*
X0051150Y0032142D03*
X0051150Y0026237D03*
D11*
X0046055Y0014645D03*
X0038630Y0039768D03*
D12*
X0029287Y0043745D02*
X0028335Y0042792D01*
X0028335Y0024168D01*
X0011880Y0024168D01*
X0011780Y0024268D01*
X0011780Y0018363D02*
X0011975Y0018168D01*
X0014780Y0018168D01*
X0018302Y0014645D01*
X0046055Y0014645D01*
X0040201Y0017068D02*
X0034964Y0017068D01*
X0028335Y0023697D01*
X0028335Y0024168D01*
D13*
X0011780Y0018063D02*
X0011780Y0006468D01*
X0051380Y0006468D01*
X0051380Y0016968D01*
X0047213Y0016968D01*
X0047281Y0016939D01*
X0051380Y0016939D01*
X0051380Y0016341D02*
X0048020Y0016341D01*
X0048066Y0016295D02*
X0047705Y0016656D01*
X0047281Y0016939D01*
X0048066Y0016295D02*
X0048349Y0015871D01*
X0048545Y0015400D01*
X0048644Y0014900D01*
X0048644Y0014689D01*
X0046100Y0014689D01*
X0046100Y0014600D01*
X0048644Y0014600D01*
X0048644Y0014390D01*
X0048545Y0013890D01*
X0048349Y0013418D01*
X0048066Y0012994D01*
X0047705Y0012634D01*
X0047281Y0012350D01*
X0046810Y0012155D01*
X0046310Y0012056D01*
X0046100Y0012056D01*
X0046100Y0014600D01*
X0046011Y0014600D01*
X0046011Y0012056D01*
X0045800Y0012056D01*
X0045300Y0012155D01*
X0044829Y0012350D01*
X0044405Y0012634D01*
X0044044Y0012994D01*
X0043761Y0013418D01*
X0043566Y0013890D01*
X0043466Y0014390D01*
X0043466Y0014600D01*
X0046011Y0014600D01*
X0046011Y0014689D01*
X0043466Y0014689D01*
X0043466Y0014900D01*
X0043566Y0015400D01*
X0043761Y0015871D01*
X0044044Y0016295D01*
X0044405Y0016656D01*
X0044829Y0016939D01*
X0044898Y0016968D01*
X0042291Y0016968D01*
X0042291Y0016202D01*
X0041067Y0014978D01*
X0039335Y0014978D01*
X0038744Y0015568D01*
X0034343Y0015568D01*
X0033464Y0016447D01*
X0033464Y0016447D01*
X0027713Y0022197D01*
X0027713Y0022197D01*
X0027243Y0022668D01*
X0014664Y0022668D01*
X0014558Y0022412D01*
X0013670Y0021523D01*
X0014124Y0021220D01*
X0014636Y0020707D01*
X0015039Y0020105D01*
X0015316Y0019436D01*
X0015457Y0018725D01*
X0015457Y0018663D01*
X0012080Y0018663D01*
X0012080Y0018063D01*
X0015457Y0018063D01*
X0015457Y0018001D01*
X0015316Y0017290D01*
X0015039Y0016621D01*
X0014636Y0016018D01*
X0014124Y0015506D01*
X0013522Y0015103D01*
X0012852Y0014826D01*
X0012142Y0014685D01*
X0012080Y0014685D01*
X0012080Y0018063D01*
X0011780Y0018063D01*
X0012080Y0018136D02*
X0031775Y0018136D01*
X0032373Y0017538D02*
X0015365Y0017538D01*
X0015171Y0016939D02*
X0032972Y0016939D01*
X0033570Y0016341D02*
X0014852Y0016341D01*
X0014360Y0015742D02*
X0034169Y0015742D01*
X0035585Y0018568D02*
X0029835Y0024319D01*
X0029835Y0041654D01*
X0030153Y0041654D01*
X0031378Y0042879D01*
X0031378Y0044611D01*
X0030153Y0045835D01*
X0028894Y0045835D01*
X0028487Y0046242D01*
X0027784Y0046945D01*
X0017544Y0046945D01*
X0016653Y0047835D01*
X0014921Y0047835D01*
X0013697Y0046611D01*
X0013697Y0044879D01*
X0014921Y0043654D01*
X0016653Y0043654D01*
X0017544Y0044545D01*
X0026790Y0044545D01*
X0027197Y0044138D01*
X0027197Y0043776D01*
X0026835Y0043413D01*
X0026835Y0025668D01*
X0014748Y0025668D01*
X0014558Y0026125D01*
X0013636Y0027047D01*
X0013217Y0027221D01*
X0013636Y0027395D01*
X0014558Y0028317D01*
X0015057Y0029522D01*
X0015057Y0030826D01*
X0014558Y0032031D01*
X0013636Y0032953D01*
X0013217Y0033127D01*
X0013636Y0033300D01*
X0014558Y0034223D01*
X0015057Y0035427D01*
X0015057Y0036731D01*
X0014558Y0037936D01*
X0013636Y0038858D01*
X0013217Y0039032D01*
X0013636Y0039206D01*
X0014558Y0040128D01*
X0015057Y0041333D01*
X0015057Y0042637D01*
X0014558Y0043842D01*
X0013636Y0044764D01*
X0012432Y0045263D01*
X0011780Y0045263D01*
X0011780Y0050568D01*
X0017360Y0050568D01*
X0017360Y0050191D01*
X0017859Y0048986D01*
X0018781Y0048064D01*
X0019986Y0047565D01*
X0021290Y0047565D01*
X0022495Y0048064D01*
X0023417Y0048986D01*
X0023591Y0049406D01*
X0023764Y0048986D01*
X0024686Y0048064D01*
X0025891Y0047565D01*
X0027195Y0047565D01*
X0028400Y0048064D01*
X0029322Y0048986D01*
X0029496Y0049406D01*
X0029670Y0048986D01*
X0030592Y0048064D01*
X0031797Y0047565D01*
X0033101Y0047565D01*
X0034306Y0048064D01*
X0035228Y0048986D01*
X0035402Y0049406D01*
X0035575Y0048986D01*
X0036498Y0048064D01*
X0037702Y0047565D01*
X0039006Y0047565D01*
X0040211Y0048064D01*
X0041133Y0048986D01*
X0041632Y0050191D01*
X0041632Y0050568D01*
X0041780Y0050568D01*
X0041780Y0038835D01*
X0041421Y0038835D01*
X0040197Y0037611D01*
X0040197Y0035879D01*
X0041087Y0034988D01*
X0041087Y0025001D01*
X0040197Y0024111D01*
X0040197Y0022379D01*
X0041421Y0021154D01*
X0041780Y0021154D01*
X0041780Y0018446D01*
X0041067Y0019159D01*
X0039335Y0019159D01*
X0038744Y0018568D01*
X0035585Y0018568D01*
X0035419Y0018735D02*
X0038911Y0018735D01*
X0041491Y0018735D02*
X0041780Y0018735D01*
X0041780Y0019333D02*
X0034820Y0019333D01*
X0034222Y0019932D02*
X0041780Y0019932D01*
X0041780Y0020530D02*
X0033623Y0020530D01*
X0033025Y0021129D02*
X0041780Y0021129D01*
X0040848Y0021727D02*
X0032426Y0021727D01*
X0031828Y0022326D02*
X0040250Y0022326D01*
X0040197Y0022924D02*
X0031229Y0022924D01*
X0030631Y0023523D02*
X0040197Y0023523D01*
X0040208Y0024121D02*
X0030032Y0024121D01*
X0029835Y0024720D02*
X0040806Y0024720D01*
X0041087Y0025318D02*
X0029835Y0025318D01*
X0029835Y0025917D02*
X0041087Y0025917D01*
X0041087Y0026515D02*
X0029835Y0026515D01*
X0029835Y0027114D02*
X0041087Y0027114D01*
X0041087Y0027712D02*
X0029835Y0027712D01*
X0029835Y0028311D02*
X0041087Y0028311D01*
X0041087Y0028910D02*
X0029835Y0028910D01*
X0029835Y0029508D02*
X0041087Y0029508D01*
X0041087Y0030107D02*
X0029835Y0030107D01*
X0029835Y0030705D02*
X0041087Y0030705D01*
X0041087Y0031304D02*
X0029835Y0031304D01*
X0029835Y0031902D02*
X0041087Y0031902D01*
X0041087Y0032501D02*
X0029835Y0032501D01*
X0029835Y0033099D02*
X0041087Y0033099D01*
X0041087Y0033698D02*
X0029835Y0033698D01*
X0029835Y0034296D02*
X0041087Y0034296D01*
X0041087Y0034895D02*
X0029835Y0034895D01*
X0029835Y0035493D02*
X0040583Y0035493D01*
X0040197Y0036092D02*
X0029835Y0036092D01*
X0029835Y0036690D02*
X0040197Y0036690D01*
X0040197Y0037289D02*
X0039411Y0037289D01*
X0039385Y0037278D02*
X0039856Y0037473D01*
X0040280Y0037757D01*
X0040641Y0038117D01*
X0040924Y0038541D01*
X0041119Y0039012D01*
X0041219Y0039513D01*
X0041219Y0039723D01*
X0038674Y0039723D01*
X0038674Y0037179D01*
X0038885Y0037179D01*
X0039385Y0037278D01*
X0038674Y0037289D02*
X0038585Y0037289D01*
X0038585Y0037179D02*
X0038585Y0039723D01*
X0036041Y0039723D01*
X0036041Y0039513D01*
X0036140Y0039012D01*
X0036336Y0038541D01*
X0036619Y0038117D01*
X0036980Y0037757D01*
X0037404Y0037473D01*
X0037875Y0037278D01*
X0038375Y0037179D01*
X0038585Y0037179D01*
X0038585Y0037887D02*
X0038674Y0037887D01*
X0038674Y0038486D02*
X0038585Y0038486D01*
X0038585Y0039084D02*
X0038674Y0039084D01*
X0038674Y0039683D02*
X0038585Y0039683D01*
X0038585Y0039723D02*
X0038674Y0039723D01*
X0038674Y0039812D01*
X0038585Y0039812D01*
X0038585Y0039723D01*
X0038585Y0039812D02*
X0036041Y0039812D01*
X0036041Y0040023D01*
X0036140Y0040523D01*
X0036336Y0040994D01*
X0036619Y0041418D01*
X0036980Y0041779D01*
X0037404Y0042062D01*
X0037875Y0042257D01*
X0038375Y0042357D01*
X0038585Y0042357D01*
X0038585Y0039812D01*
X0038674Y0039812D02*
X0038674Y0042357D01*
X0038885Y0042357D01*
X0039385Y0042257D01*
X0039856Y0042062D01*
X0040280Y0041779D01*
X0040641Y0041418D01*
X0040924Y0040994D01*
X0041119Y0040523D01*
X0041219Y0040023D01*
X0041219Y0039812D01*
X0038674Y0039812D01*
X0038674Y0040281D02*
X0038585Y0040281D01*
X0038585Y0040880D02*
X0038674Y0040880D01*
X0038674Y0041478D02*
X0038585Y0041478D01*
X0038585Y0042077D02*
X0038674Y0042077D01*
X0039820Y0042077D02*
X0041780Y0042077D01*
X0041780Y0042675D02*
X0031174Y0042675D01*
X0031378Y0043274D02*
X0041780Y0043274D01*
X0041780Y0043872D02*
X0031378Y0043872D01*
X0031378Y0044471D02*
X0041780Y0044471D01*
X0041780Y0045069D02*
X0030919Y0045069D01*
X0030321Y0045668D02*
X0041780Y0045668D01*
X0041780Y0046266D02*
X0028463Y0046266D01*
X0027864Y0046865D02*
X0041780Y0046865D01*
X0041780Y0047463D02*
X0017025Y0047463D01*
X0018185Y0048660D02*
X0011780Y0048660D01*
X0011780Y0048062D02*
X0018787Y0048062D01*
X0017746Y0049259D02*
X0011780Y0049259D01*
X0011780Y0049857D02*
X0017498Y0049857D01*
X0017360Y0050456D02*
X0011780Y0050456D01*
X0011780Y0047463D02*
X0014550Y0047463D01*
X0013951Y0046865D02*
X0011780Y0046865D01*
X0011780Y0046266D02*
X0013697Y0046266D01*
X0013697Y0045668D02*
X0011780Y0045668D01*
X0012899Y0045069D02*
X0013697Y0045069D01*
X0013929Y0044471D02*
X0014105Y0044471D01*
X0014528Y0043872D02*
X0014703Y0043872D01*
X0014794Y0043274D02*
X0026835Y0043274D01*
X0026835Y0042675D02*
X0015042Y0042675D01*
X0015057Y0042077D02*
X0026835Y0042077D01*
X0026835Y0041478D02*
X0015057Y0041478D01*
X0014870Y0040880D02*
X0026835Y0040880D01*
X0026835Y0040281D02*
X0014622Y0040281D01*
X0014113Y0039683D02*
X0026835Y0039683D01*
X0026835Y0039084D02*
X0013342Y0039084D01*
X0014009Y0038486D02*
X0026835Y0038486D01*
X0026835Y0037887D02*
X0014579Y0037887D01*
X0014827Y0037289D02*
X0026835Y0037289D01*
X0026835Y0036690D02*
X0015057Y0036690D01*
X0015057Y0036092D02*
X0026835Y0036092D01*
X0026835Y0035493D02*
X0015057Y0035493D01*
X0014837Y0034895D02*
X0026835Y0034895D01*
X0026835Y0034296D02*
X0014589Y0034296D01*
X0014033Y0033698D02*
X0026835Y0033698D01*
X0026835Y0033099D02*
X0013283Y0033099D01*
X0014089Y0032501D02*
X0026835Y0032501D01*
X0026835Y0031902D02*
X0014612Y0031902D01*
X0014860Y0031304D02*
X0026835Y0031304D01*
X0026835Y0030705D02*
X0015057Y0030705D01*
X0015057Y0030107D02*
X0026835Y0030107D01*
X0026835Y0029508D02*
X0015052Y0029508D01*
X0014804Y0028910D02*
X0026835Y0028910D01*
X0026835Y0028311D02*
X0014552Y0028311D01*
X0013954Y0027712D02*
X0026835Y0027712D01*
X0026835Y0027114D02*
X0013475Y0027114D01*
X0014168Y0026515D02*
X0026835Y0026515D01*
X0026835Y0025917D02*
X0014645Y0025917D01*
X0014473Y0022326D02*
X0027585Y0022326D01*
X0028183Y0021727D02*
X0013874Y0021727D01*
X0014215Y0021129D02*
X0028782Y0021129D01*
X0029380Y0020530D02*
X0014755Y0020530D01*
X0015111Y0019932D02*
X0029979Y0019932D01*
X0030577Y0019333D02*
X0015336Y0019333D01*
X0015456Y0018735D02*
X0031176Y0018735D01*
X0039169Y0015144D02*
X0013582Y0015144D01*
X0012080Y0015144D02*
X0011780Y0015144D01*
X0011780Y0015742D02*
X0012080Y0015742D01*
X0012080Y0016341D02*
X0011780Y0016341D01*
X0011780Y0016939D02*
X0012080Y0016939D01*
X0012080Y0017538D02*
X0011780Y0017538D01*
X0011780Y0014545D02*
X0043466Y0014545D01*
X0043515Y0015144D02*
X0041233Y0015144D01*
X0041831Y0015742D02*
X0043707Y0015742D01*
X0044090Y0016341D02*
X0042291Y0016341D01*
X0042291Y0016939D02*
X0044829Y0016939D01*
X0046011Y0014545D02*
X0046100Y0014545D01*
X0046100Y0013947D02*
X0046011Y0013947D01*
X0046011Y0013348D02*
X0046100Y0013348D01*
X0046100Y0012750D02*
X0046011Y0012750D01*
X0046011Y0012151D02*
X0046100Y0012151D01*
X0046790Y0012151D02*
X0051380Y0012151D01*
X0051380Y0011553D02*
X0011780Y0011553D01*
X0011780Y0012151D02*
X0045320Y0012151D01*
X0044289Y0012750D02*
X0011780Y0012750D01*
X0011780Y0013348D02*
X0043808Y0013348D01*
X0043554Y0013947D02*
X0011780Y0013947D01*
X0011780Y0010954D02*
X0051380Y0010954D01*
X0051380Y0010356D02*
X0011780Y0010356D01*
X0011780Y0009757D02*
X0051380Y0009757D01*
X0051380Y0009159D02*
X0011780Y0009159D01*
X0011780Y0008560D02*
X0051380Y0008560D01*
X0051380Y0007962D02*
X0011780Y0007962D01*
X0011780Y0007363D02*
X0051380Y0007363D01*
X0051380Y0006765D02*
X0011780Y0006765D01*
X0029835Y0037289D02*
X0037849Y0037289D01*
X0036849Y0037887D02*
X0029835Y0037887D01*
X0029835Y0038486D02*
X0036373Y0038486D01*
X0036126Y0039084D02*
X0029835Y0039084D01*
X0029835Y0039683D02*
X0036041Y0039683D01*
X0036092Y0040281D02*
X0029835Y0040281D01*
X0029835Y0040880D02*
X0036288Y0040880D01*
X0036679Y0041478D02*
X0029835Y0041478D01*
X0030576Y0042077D02*
X0037439Y0042077D01*
X0040581Y0041478D02*
X0041780Y0041478D01*
X0041780Y0040880D02*
X0040972Y0040880D01*
X0041167Y0040281D02*
X0041780Y0040281D01*
X0041780Y0039683D02*
X0041219Y0039683D01*
X0041134Y0039084D02*
X0041780Y0039084D01*
X0041072Y0038486D02*
X0040887Y0038486D01*
X0040473Y0037887D02*
X0040411Y0037887D01*
X0042287Y0036745D02*
X0042287Y0023245D01*
X0048403Y0015742D02*
X0051380Y0015742D01*
X0051380Y0015144D02*
X0048596Y0015144D01*
X0048644Y0014545D02*
X0051380Y0014545D01*
X0051380Y0013947D02*
X0048556Y0013947D01*
X0048303Y0013348D02*
X0051380Y0013348D01*
X0051380Y0012750D02*
X0047821Y0012750D01*
X0029287Y0043745D02*
X0027287Y0045745D01*
X0015787Y0045745D01*
X0017470Y0044471D02*
X0026864Y0044471D01*
X0027197Y0043872D02*
X0016871Y0043872D01*
X0022489Y0048062D02*
X0024692Y0048062D01*
X0024090Y0048660D02*
X0023091Y0048660D01*
X0023530Y0049259D02*
X0023652Y0049259D01*
X0028394Y0048062D02*
X0030598Y0048062D01*
X0029996Y0048660D02*
X0028996Y0048660D01*
X0029435Y0049259D02*
X0029557Y0049259D01*
X0034300Y0048062D02*
X0036503Y0048062D01*
X0035901Y0048660D02*
X0034902Y0048660D01*
X0035341Y0049259D02*
X0035463Y0049259D01*
X0040205Y0048062D02*
X0041780Y0048062D01*
X0041780Y0048660D02*
X0040807Y0048660D01*
X0041246Y0049259D02*
X0041780Y0049259D01*
X0041780Y0049857D02*
X0041494Y0049857D01*
X0041632Y0050456D02*
X0041780Y0050456D01*
D14*
X0029287Y0043745D03*
X0042287Y0036745D03*
X0042287Y0023245D03*
X0040201Y0017068D03*
X0015787Y0045745D03*
M02*
