G75*
%MOIN*%
%OFA0B0*%
%FSLAX25Y25*%
%IPPOS*%
%LPD*%
%AMOC8*
5,1,8,0,0,1.08239X$1,22.5*
%
%ADD10R,0.02178X0.01784*%
%ADD11R,0.01784X0.02178*%
%ADD12C,0.01229*%
%ADD13R,0.03950X0.01981*%
%ADD14R,0.01981X0.03950*%
%ADD15R,0.04540X0.03950*%
%ADD16R,0.01902X0.02493*%
%ADD17R,0.02493X0.01902*%
%ADD18C,0.05556*%
%ADD19R,0.03556X0.04343*%
%ADD20C,0.03378*%
%ADD21C,0.03181*%
D10*
X0021228Y0012260D03*
X0021228Y0014229D03*
X0036228Y0014729D03*
X0036228Y0012760D03*
X0037728Y0042260D03*
X0037728Y0044229D03*
D11*
X0045244Y0036745D03*
X0047213Y0036745D03*
X0047213Y0023745D03*
X0045244Y0023745D03*
D12*
X0035856Y0035314D02*
X0021718Y0035314D01*
X0035856Y0035314D02*
X0035856Y0021176D01*
X0021718Y0021176D01*
X0021718Y0035314D01*
X0021718Y0022404D02*
X0035856Y0022404D01*
X0035856Y0023632D02*
X0021718Y0023632D01*
X0021718Y0024860D02*
X0035856Y0024860D01*
X0035856Y0026088D02*
X0021718Y0026088D01*
X0021718Y0027316D02*
X0035856Y0027316D01*
X0035856Y0028544D02*
X0021718Y0028544D01*
X0021718Y0029772D02*
X0035856Y0029772D01*
X0035856Y0031000D02*
X0021718Y0031000D01*
X0021718Y0032228D02*
X0035856Y0032228D01*
X0035856Y0033456D02*
X0021718Y0033456D01*
X0021718Y0034684D02*
X0035856Y0034684D01*
D13*
X0038630Y0035134D03*
X0038630Y0033166D03*
X0038630Y0031197D03*
X0038630Y0029229D03*
X0038630Y0027260D03*
X0038630Y0025292D03*
X0038630Y0023323D03*
X0038630Y0021355D03*
X0018945Y0021355D03*
X0018945Y0023323D03*
X0018945Y0025292D03*
X0018945Y0027260D03*
X0018945Y0029229D03*
X0018945Y0031197D03*
X0018945Y0033166D03*
X0018945Y0035134D03*
D14*
X0021898Y0038087D03*
X0023866Y0038087D03*
X0025835Y0038087D03*
X0027803Y0038087D03*
X0029772Y0038087D03*
X0031740Y0038087D03*
X0033709Y0038087D03*
X0035677Y0038087D03*
X0035677Y0018402D03*
X0033709Y0018402D03*
X0031740Y0018402D03*
X0029772Y0018402D03*
X0027803Y0018402D03*
X0025835Y0018402D03*
X0023866Y0018402D03*
X0021898Y0018402D03*
D15*
X0026630Y0013312D03*
X0026630Y0009178D03*
X0031945Y0009178D03*
X0031945Y0013312D03*
D16*
X0045224Y0019745D03*
X0047232Y0019745D03*
X0045232Y0027745D03*
X0043224Y0027745D03*
X0043224Y0033245D03*
X0045232Y0033245D03*
X0045283Y0040745D03*
X0047291Y0040745D03*
X0034232Y0043745D03*
X0032224Y0043745D03*
D17*
X0025728Y0044749D03*
X0025728Y0042741D03*
X0021728Y0042741D03*
X0021728Y0044749D03*
X0018728Y0044749D03*
X0018728Y0042741D03*
D18*
X0011780Y0018363D03*
X0011780Y0024268D03*
X0011780Y0030174D03*
X0011780Y0036079D03*
X0011780Y0041985D03*
X0020638Y0050843D03*
X0026543Y0050843D03*
X0032449Y0050843D03*
X0038354Y0050843D03*
X0051150Y0032142D03*
X0051150Y0026237D03*
D19*
X0045961Y0010500D03*
X0040843Y0010500D03*
D20*
X0046055Y0014645D03*
X0038630Y0039768D03*
D21*
X0042287Y0036745D03*
X0042287Y0023245D03*
X0040201Y0017068D03*
X0029287Y0043745D03*
X0015787Y0045745D03*
M02*
